<?xml version="1.0" encoding="UTF-8"?>
<svg id="Calque_2" data-name="Calque 2" xmlns="http://www.w3.org/2000/svg" viewBox="0 0 116.85 39.57">
  <defs>
    <style>
      .cls-1 {
        fill: #fff;
      }

      .cls-2 {
        fill: #f29204;
      }
    </style>
  </defs>
  <g id="Calque_1-2" data-name="Calque 1">
    <g>
      <rect class="cls-1" x="50.26" y="10.53" width="2.71" height="12.64"/>
      <polygon class="cls-1" points="54.95 23.17 54.95 10.53 57.88 10.53 62.5 18.27 62.5 10.53 65.21 10.53 65.21 23.17 62.29 23.17 57.66 15.42 57.66 23.17 54.95 23.17"/>
      <polygon class="cls-1" points="76.5 10.53 76.5 13.24 72.89 13.24 72.89 23.17 70.18 23.17 70.18 13.24 66.57 13.24 66.57 10.53 76.5 10.53"/>
      <polygon class="cls-1" points="77.85 23.17 77.85 10.53 85.91 10.53 85.91 13.24 80.56 13.24 80.56 15.04 84.68 15.04 84.68 17.75 80.56 17.75 80.56 20.46 85.91 20.46 85.91 23.17 77.85 23.17"/>
      <path class="cls-1" d="M87.44,23.17V10.53h5.15c.69,0,1.32,.17,1.88,.52,.56,.35,1,.82,1.33,1.4,.33,.59,.49,1.23,.49,1.94,0,.54-.09,1.05-.27,1.51-.18,.47-.44,.88-.77,1.24-.33,.36-.73,.65-1.18,.86l3,5.17h-3.12l-2.85-4.91h-.94v4.91h-2.71Zm2.71-7.62h2.11c.24,0,.46-.06,.66-.19s.36-.29,.48-.49c.12-.2,.18-.43,.18-.68s-.06-.47-.18-.68c-.12-.2-.28-.37-.48-.49s-.42-.19-.66-.19h-2.11v2.71Z"/>
      <rect class="cls-1" x="102.58" y="10.53" width="2.71" height="12.64"/>
      <polygon class="cls-1" points="116.85 10.53 116.85 13.24 113.24 13.24 113.24 23.17 110.53 23.17 110.53 13.24 106.91 13.24 106.91 10.53 116.85 10.53"/>
      <path class="cls-2" d="M11.53,24.93v12.98c-2.75-1.3-5.2-3.22-7.1-5.59-1.37-1.7-2.46-3.63-3.22-5.68,.82-.21,1.65-.41,2.49-.58,2.58-.54,5.2-.91,7.82-1.12"/>
      <path class="cls-2" d="M28.57,24.93c2.72,.22,5.42,.61,8.09,1.18,.75,.16,1.49,.34,2.23,.53-.76,2.09-1.88,4.04-3.28,5.76-1.9,2.33-4.32,4.23-7.04,5.51v-12.98Z"/>
      <path class="cls-2" d="M20.73,3.58c4.18,.04,8.38,.47,12.47,1.34-.88-.77-1.83-1.45-2.83-2.06-3.1-1.87-6.7-2.86-10.32-2.86C15.24,0,10.52,1.77,6.9,4.92c1.05-.22,2.12-.42,3.2-.59,3.51-.54,7.07-.79,10.63-.75"/>
      <path class="cls-2" d="M20.04,6.39c4.35,0,8.72,.44,12.96,1.4,1.38,.31,2.72,.67,4.02,1.09,.48,.77,.92,1.57,1.3,2.41,1.67,3.69,2.16,7.85,1.44,11.83-.89-.23-1.79-.43-2.71-.62-3.91-.81-7.89-1.23-11.88-1.36v17.76c-1.74,.43-3.83,.67-5.13,.67-1.73,0-3.46-.23-5.14-.67V21.14c-4.73,.14-9.32,.79-11.88,1.36-.91,.2-1.82,.4-2.7,.62C.07,21.81,0,19.82,0,19.51c0-3.74,1.07-7.46,3.07-10.62,1.3-.42,2.64-.78,4.01-1.09,4.25-.96,8.61-1.41,12.96-1.4"/>
      <g>
        <path class="cls-1" d="M52.21,32.43c-.29,0-.56-.04-.83-.13-.27-.09-.5-.22-.7-.38-.2-.16-.34-.36-.42-.59l.39-.15c.06,.18,.17,.33,.34,.45,.16,.13,.35,.22,.57,.28,.22,.06,.43,.1,.65,.1,.26,0,.51-.04,.74-.14,.23-.09,.41-.22,.56-.38,.14-.16,.21-.35,.21-.57s-.07-.4-.22-.55c-.15-.14-.34-.26-.57-.34s-.47-.15-.72-.2c-.37-.06-.69-.15-.98-.26-.29-.11-.52-.26-.69-.45-.17-.2-.25-.46-.25-.79,0-.31,.09-.57,.27-.8,.18-.22,.41-.4,.7-.52,.29-.12,.61-.18,.95-.18,.28,0,.55,.04,.81,.13,.27,.09,.5,.21,.7,.38,.2,.17,.35,.37,.44,.6l-.4,.14c-.06-.18-.17-.33-.34-.45-.16-.12-.35-.22-.57-.28-.22-.06-.43-.1-.66-.1-.27,0-.51,.04-.74,.13-.23,.09-.41,.22-.55,.38s-.21,.35-.21,.57c0,.25,.07,.44,.2,.58,.13,.14,.31,.24,.54,.31,.23,.07,.48,.13,.77,.18,.34,.06,.66,.15,.95,.27,.29,.12,.53,.28,.71,.49,.18,.2,.27,.45,.27,.75s-.09,.57-.27,.79c-.18,.23-.41,.4-.7,.52-.29,.12-.61,.19-.95,.19Z"/>
        <path class="cls-1" d="M59.73,32.5v-5.41h3.26v.42h-2.84v1.89h2.38v.42h-2.38v2.27h2.84v.42h-3.26Z"/>
        <path class="cls-1" d="M68.56,32.45v-5.41h1.76c.29,0,.54,.07,.78,.21s.42,.33,.55,.56,.2,.5,.2,.8c0,.27-.06,.52-.17,.74-.12,.22-.27,.4-.47,.54-.2,.14-.41,.23-.66,.26l1.33,2.3h-.48l-1.32-2.28h-1.1v2.28h-.42Zm.42-2.69h1.32c.21,0,.4-.05,.57-.15,.17-.1,.31-.24,.41-.42,.1-.17,.15-.37,.15-.6s-.05-.42-.15-.6c-.1-.18-.24-.32-.41-.42-.17-.1-.36-.15-.57-.15h-1.32v2.33Z"/>
        <path class="cls-1" d="M79.42,32.4l-1.96-5.41h.44l1.76,4.86,1.77-4.86h.44l-1.97,5.41h-.49Z"/>
        <path class="cls-1" d="M87.45,32.35v-5.41h.42v5.41h-.42Z"/>
        <path class="cls-1" d="M96.09,32.55c-.37,0-.71-.07-1.03-.22-.32-.15-.6-.35-.85-.6-.24-.26-.43-.55-.57-.89-.14-.34-.21-.7-.21-1.09s.07-.75,.21-1.09c.14-.34,.33-.64,.57-.89,.24-.26,.53-.46,.85-.6,.32-.15,.67-.22,1.03-.22,.44,0,.84,.1,1.21,.3,.37,.2,.67,.47,.92,.81l-.37,.2c-.2-.28-.46-.49-.77-.66-.31-.16-.64-.24-.98-.24-.31,0-.61,.06-.88,.19-.27,.13-.51,.3-.71,.52-.2,.22-.36,.47-.48,.76-.11,.29-.17,.59-.17,.92s.06,.64,.17,.93c.12,.29,.28,.54,.48,.76,.21,.22,.44,.39,.71,.52,.27,.12,.56,.19,.87,.19,.36,0,.69-.08,1-.25,.31-.16,.56-.38,.76-.65l.37,.2c-.24,.34-.55,.61-.92,.81-.37,.2-.77,.3-1.21,.3Z"/>
        <path class="cls-1" d="M103.78,32.3v-5.41h3.26v.42h-2.84v1.89h2.38v.42h-2.38v2.27h2.84v.42h-3.26Z"/>
        <path class="cls-1" d="M114.57,32.55c-.29,0-.56-.04-.83-.13-.27-.09-.5-.22-.7-.38s-.34-.36-.42-.59l.39-.15c.06,.18,.17,.33,.34,.45,.16,.13,.35,.22,.57,.28,.22,.06,.43,.1,.65,.1,.26,0,.51-.04,.74-.14,.23-.09,.41-.22,.56-.38,.14-.16,.21-.35,.21-.57s-.07-.4-.22-.55c-.15-.14-.34-.26-.57-.34s-.47-.15-.72-.2c-.37-.06-.69-.15-.98-.26-.29-.11-.52-.26-.69-.45s-.25-.46-.25-.79c0-.31,.09-.57,.27-.8,.18-.22,.41-.4,.7-.52,.29-.12,.61-.18,.95-.18,.28,0,.55,.04,.81,.13,.27,.09,.5,.21,.7,.38,.2,.17,.35,.37,.44,.6l-.4,.14c-.06-.18-.17-.33-.34-.45-.16-.12-.35-.22-.57-.28-.22-.06-.43-.1-.66-.1-.27,0-.51,.04-.74,.13-.23,.09-.41,.22-.55,.38s-.21,.35-.21,.57c0,.25,.07,.44,.2,.58,.13,.14,.31,.24,.54,.31,.23,.07,.48,.13,.77,.18,.34,.06,.66,.15,.95,.27,.29,.12,.53,.28,.71,.49,.18,.2,.27,.45,.27,.75s-.09,.57-.27,.79c-.18,.23-.41,.4-.7,.52-.29,.12-.61,.19-.95,.19Z"/>
      </g>
    </g>
  </g>
</svg>